<svg xmlns="http://www.w3.org/2000/svg" viewBox="0 0 635.235 122"><path fill="#84BC34" d="M54.39 27.129c-4.476-1.023-9.207-2.813-24.933-10.996C8.616 5.393 4.013 4.626 1.328 8.973c-3.58 5.754-.256 20.457 14.064 47.308 9.334 17.644 24.038 40.275 26.723 43.344.64.64 1.278.767 1.918.383.639-.383.895-.895.383-1.79-2.173-4.091-9.845-19.946-13.297-28.129-8.183-19.818-10.1-26.466-7.288-28 .767-.384 1.79-.128 4.092 1.15 7.927 4.22 25.316 17.645 28.384 26.978 1.279 4.092 2.046 8.822 2.302 25.572.383 22.12 2.045 26.211 7.415 26.211 7.16 0 19.179-9.973 37.079-35.033 11.763-16.366 25.572-39.508 26.978-43.216.384-.767 0-1.407-.511-1.79-.64-.384-1.279-.256-1.79.511-2.685 3.836-13.553 17.9-19.563 24.805-14.32 16.493-19.562 21.352-22.375 19.818-.767-.384-1.023-1.407-1.023-3.836 0-8.567 3.708-29.28 10.868-36.312 3.069-3.069 7.288-6.01 22.759-14.576 20.457-11.38 23.398-14.704 20.713-19.179C135.579 7.44 120.364 2.708 88.016.79 66.919-.488 38.406.023 34.316.662c-.896.128-1.28.64-1.407 1.279 0 .64.384 1.15 1.407 1.15 4.858.256 23.525 2.046 32.859 3.325 22.503 3.196 29.663 5.114 29.663 8.183 0 .767-.767 1.534-3.068 2.685-8.056 4.73-29.28 12.019-39.38 9.845"/><path d="M547.594 52.37h-3.225c-12.899 0-14.417 1.517-14.417 12.898v1.897h32.25v-1.897c0-11.571-1.708-12.899-14.608-12.899m28.455 27.126h-46.286c0 7.967.569 10.433 2.466 12.14 1.707 1.707 3.983 2.276 12.14 2.276h3.225c7.968 0 10.244-.379 12.141-2.276.949-.948 1.518-1.897 1.897-3.414h14.227c-2.276 13.468-9.295 18.59-25.04 18.59h-9.864c-9.295 0-14.986-1.708-19.16-6.07-4.173-4.174-5.88-9.675-5.88-19.16V64.7c0-9.485 1.707-14.986 5.88-19.159 4.363-4.363 10.054-6.07 19.16-6.07h9.864c9.295 0 14.986 1.707 19.16 5.88 4.363 4.174 5.88 9.485 5.88 19.349l.19 14.796zm58.996 27.126h-13.658c-9.295 0-14.796-1.708-19.16-6.07-4.362-4.174-5.88-9.675-5.88-19.16V52.939H588V39.85h8.347V23.346h14.038V39.85h19.16l-1.708 13.09h-17.452v28.64c0 10.054 2.466 11.951 14.417 11.951h10.433v13.089h-.19zM475.13 39.66c9.296 0 14.797 1.707 19.16 6.07 4.363 4.173 5.88 9.674 5.88 19.159v41.732h-14.037V67.355c0-7.778-.57-10.244-2.466-12.14-1.707-1.897-3.984-2.277-12.14-2.277H455.4v53.683h-14.038V39.66h33.766zM218.657 52.938h-18.97v53.683h-14.038V52.938h-8.346V39.85h8.346c.19-9.863 1.708-14.606 5.881-18.779 4.363-4.363 10.054-6.07 19.16-6.07h13.658V28.09h-10.434c-11.95 0-14.227 1.328-14.417 11.57h20.867l-1.707 13.28zm207.151 11.951c0-10.054-1.708-15.176-5.88-19.349-4.364-4.173-10.055-5.88-19.16-5.88h-9.865c-9.295 0-14.986 1.707-19.16 6.07-4.362 4.363-5.88 9.864-5.88 19.159V81.77c0 9.485 1.707 14.796 5.88 19.16 4.364 4.362 10.055 6.07 19.16 6.07h9.864c15.556 0 22.575-5.122 25.04-18.59H411.58c-.379 1.707-.948 2.655-1.897 3.414-1.897 1.897-4.173 2.276-12.14 2.276h-3.225c-8.157 0-10.244-.569-12.14-2.276-1.898-1.897-2.467-4.363-2.467-12.14h46.287V64.889h-.19zm-14.038 2.086h-32.249v-1.897c0-11.381 1.708-12.899 14.417-12.899h3.225c12.9 0 14.607 1.518 14.417 12.9l.19 1.896zm-61.272-2.086c0-10.054-1.708-15.176-5.881-19.349-4.363-4.173-10.054-5.88-19.16-5.88h-9.864c-9.295 0-14.986 1.707-19.16 6.07-4.363 4.363-5.88 9.864-5.88 19.159V81.77c0 9.485 1.707 14.796 5.88 19.16 4.363 4.362 10.054 6.07 19.16 6.07h9.864c15.556 0 22.574-5.122 25.04-18.59H336.27c-.38 1.707-.948 2.655-1.897 3.414-1.897 1.897-4.173 2.276-12.14 2.276h-3.225c-8.157 0-10.434-.569-12.141-2.276-1.897-1.897-2.466-4.363-2.466-12.14h46.286l-.19-14.796zm-14.038 2.086h-32.25v-1.897c0-11.381 1.707-12.899 14.417-12.899h3.225c12.9 0 14.607 1.518 14.417 12.9l.19 1.896zm-104.334 39.646V39.66h24.66c18.022 0 24.85 6.45 25.23 22.194H267.79c-.19-3.035-.949-5.122-2.466-6.83-1.897-2.086-4.553-2.465-12.52-2.465h-6.83v53.682h-13.848v.38z" fill="#FFF"/></svg>